<svg xmlns="http://www.w3.org/2000/svg"><symbol viewBox="0 0 257.57 451.85" id="arrow-left" xmlns="http://www.w3.org/2000/svg"><path d="M9.27 203.55L203.55 9.27A31.64 31.64 0 0 1 248.3 54L76.39 225.93l171.91 171.9a31.643 31.643 0 1 1-44.75 44.75L9.26 248.29a31.64 31.64 0 0 1 .01-44.74z"/></symbol><symbol viewBox="0 0 257.57 451.85" id="arrow-right" xmlns="http://www.w3.org/2000/svg"><path d="M248.3 248.29L54.01 442.57a31.64 31.64 0 1 1-44.75-44.74l171.92-171.91L9.27 54A31.64 31.64 0 0 1 54.02 9.27l194.29 194.28a31.64 31.64 0 0 1-.01 44.74z"/></symbol><symbol viewBox="0 0 1792 1792" id="facebook" xmlns="http://www.w3.org/2000/svg"><path d="M1343 12v264h-157q-86 0-116 36t-30 108v189h293l-39 296h-254v759H734V905H479V609h255V391q0-186 104-288.5T1115 0q147 0 228 12z"/></symbol><symbol viewBox="0 0 16 16" id="instagram" xmlns="http://www.w3.org/2000/svg"><path d="M14.5 0h-13C.675 0 0 .675 0 1.5v13c0 .825.675 1.5 1.5 1.5h13c.825 0 1.5-.675 1.5-1.5v-13c0-.825-.675-1.5-1.5-1.5zM11 2.5c0-.275.225-.5.5-.5h2c.275 0 .5.225.5.5v2c0 .275-.225.5-.5.5h-2a.501.501 0 0 1-.5-.5v-2zM8 5a3.001 3.001 0 0 1 0 6 3.001 3.001 0 0 1 0-6zm6 8.5c0 .275-.225.5-.5.5h-11a.501.501 0 0 1-.5-.5V7h1.1A4.999 4.999 0 0 0 8 13a4.999 4.999 0 0 0 4.9-6H14v6.5z"/></symbol><symbol viewBox="0 0 1792 1792" id="map-marker" xmlns="http://www.w3.org/2000/svg"><path d="M1152 640q0-106-75-181t-181-75-181 75-75 181 75 181 181 75 181-75 75-181zm256 0q0 109-33 179l-364 774q-16 33-47.5 52t-67.5 19-67.5-19-46.5-52L417 819q-33-70-33-179 0-212 150-362t362-150 362 150 150 362z"/></symbol><symbol viewBox="0 0 686 1100" id="mouse" xmlns="http://www.w3.org/2000/svg"><path d="M0 432.1v325.3c0 189.2 153.3 342.5 342.5 342.5S685 946.6 685 757.4V432.1zM329 0C146.1 7.2 0 157.6 0 342.2v6.9h329zm42 .8v348.3h315v-6.9C686 162.3 547.4 15 371 .8z"/></symbol><symbol viewBox="0 0 1792 1792" id="phone" xmlns="http://www.w3.org/2000/svg"><path d="M1600 1240q0 27-10 70.5t-21 68.5q-21 50-122 106-94 51-186 51-27 0-52.5-3.5T1151 1520t-47.5-14.5-55.5-20.5-49-18q-98-35-175-83-128-79-264.5-215.5T344 904q-48-77-83-175-3-9-18-49t-20.5-55.5T208 577t-12.5-57.5T192 467q0-92 51-186 56-101 106-122 25-11 68.5-21t70.5-10q14 0 21 3 18 6 53 76 11 19 30 54t35 63.5 31 53.5q3 4 17.5 25t21.5 35.5 7 28.5q0 20-28.5 50t-62 55-62 53-28.5 46q0 9 5 22.5t8.5 20.5 14 24 11.5 19q76 137 174 235t235 174q2 1 19 11.5t24 14 20.5 8.5 22.5 5q18 0 46-28.5t53-62 55-62 50-28.5q14 0 28.5 7t35.5 21.5 25 17.5q25 15 53.5 31t63.5 35 54 30q70 35 76 53 3 7 3 21z"/></symbol><symbol viewBox="0 0 16 20" id="play" xmlns="http://www.w3.org/2000/svg"><path fill-rule="evenodd" stroke="#FFF10E" stroke-width="2" d="M1 .999v17l13-9-13-8z"/></symbol><symbol viewBox="0 0 28 35" id="play-2" xmlns="http://www.w3.org/2000/svg"><path fill-rule="evenodd" stroke="#FFF" stroke-width="2" d="M1.951 1.066v31.225l23.911-16.53L1.951 1.066z"/><path fill="none" stroke="#FFF" stroke-width="2" d="M1.951 1.066v31.225l23.911-16.53L1.951 1.066z"/></symbol><symbol viewBox="0 0 28 35" id="play_-_Copy" xmlns="http://www.w3.org/2000/svg"><path stroke="#FFF" stroke-width="2" fill="none" d="M1.951 1.066v31.225l23.911-16.53L1.951 1.066z"/><path fill="none" stroke="#FFF" stroke-width="2" d="M1.951 1.066v31.225l23.911-16.53L1.951 1.066z"/></symbol><symbol viewBox="0 0 2240 2240" id="vk" xmlns="http://www.w3.org/2000/svg"><path d="M2077 664q23 64-150 294-24 32-65 85-78 100-90 131-17 41 14 81 17 21 81 82h1l1 1 1 1 2 2q141 131 191 221 3 5 6.5 12.5t7 26.5-.5 34-25 27.5-59 12.5l-256 4q-24 5-56-5t-52-22l-20-12q-30-21-70-64t-68.5-77.5-61-58-56.5-15.5q-3 1-8 3.5t-17 14.5-21.5 29.5-17 52-6.5 77.5q0 15-3.5 27.5t-7.5 18.5l-4 5q-18 19-53 22h-115q-71 4-146-16.5t-131.5-53-103-66T648 1482l-25-24q-10-10-27.5-30t-71.5-91-106-151-122.5-211T165 703q-6-16-6-27t3-16l4-6q15-19 57-19l274-2q12 2 23 6.5t16 8.5l5 3q16 11 24 32 20 50 46 103.5t41 81.5l16 29q29 60 56 104t48.5 68.5T814 1108t34 14 27-5q2-1 5-5t12-22 13.5-47 9.5-81 0-125q-2-40-9-73t-14-46l-6-12q-25-34-85-43-13-2 5-24 17-19 38-30 53-26 239-24 82 1 135 13 20 5 33.5 13.5t20.5 24 10.5 32 3.5 45.5-1 55-2.5 70.5-1.5 82.5q0 11-1 42t-.5 48 3.5 40.5 11.5 39 22.5 24.5q8 2 17 4t26-11 38-34.5 52-67 68-107.5q60-104 107-225 4-10 10-17.5t11-10.5l4-3 5-2.5 13-3 20-.5 288-2q39-5 64 2.5t31 16.5z"/></symbol></svg>